{"title":"The.Walk.2015.WEBRip.480p.x264.AAC-VYTO [P2PDL]","uid":12910588,"size":481039319,"categoryP":"video","categoryS":"movies","magnet":"?xt=urn:btih:bc8b81382311e900fd68e52e4a523e85ea21b735&amp;dn=The.Walk.2015.WEBRip.480p.x264.AAC-VYTO+%5BP2PDL%5D&amp;tr=udp%3A%2F%2Ftracker.leechers-paradise.org%3A6969&amp;tr=udp%3A%2F%2Fzer0day.ch%3A1337&amp;tr=udp%3A%2F%2Fopen.demonii.com%3A1337&amp;tr=udp%3A%2F%2Ftracker.coppersurfer.tk%3A6969&amp;tr=udp%3A%2F%2Fexodus.desync.com%3A6969","seeders":3,"leechers":2,"uploader":"VYTOP2PDL","files":6,"time":1449294860,"description":"____    ____ ____    ____ .___________.  ______   \r\n     /   /      /   / |           | /  __    \r\n    /   /      /   /  `---|  |----`|  |  |  | \r\n        /     _    _/       |  |     |  |  |  | \r\n       /        |  |         |  |     |  `--'  | \r\n    __/         |__|         |__|      ______/  \r\n                                                  \r\nPresenting Small Encodes with quality for years!\r\n                                                                                                   \r\n                                                                                                   \r\n\r\nThe.Walk.2015.WEBRip.480p.x264.AAC-VYTO\r\n\r\n\r\nGenre:  Adventure, Biography, Drama   \nhttp://www.imdb.com/title/tt3488710/\r\n\r\n\r\nGeneral\r\nFormat                         : MPEG-4\r\nFile size                      : 452 MiB\r\nDuration                       : 2h 3mn\r\nOverall bit rate               : 514 Kbps\r\n\r\nVideo\r\nFormat                         : AVC\r\nBit rate                       : 478 Kbps\r\nWidth                          : 720 pixels\r\nHeight                         : 304 pixels\r\nDisplay aspect ratio           : 2.35:1\r\nFrame rate mode                : Constant\r\nFrame rate                     : 29.970 fps\r\nBit depth                      : 8 bits\r\nStream size                    : 421 MiB (93%)\r\nWriting library                : x264\r\n\r\nAudio\r\nFormat                         : AAC\r\nBit rate mode                  : Variable\r\nBit rate                       : 32.0 Kbps\r\nChannel(s)                     : 2 channels \r\nChannel positions              : Front: L R \r\nSampling rate                  : 48.0 KHz \r\nStream size                    : 28.2 MiB (6%)\r\nLanguage                       : English\r\n\r\nSubtitle                       : N/a\r\n \nhttp://ititli.com/x5 \nhttp://ititli.com/xB \nhttp://ititli.com/xN \nhttp://ititli.com/xP \nhttp://ititli.com/xf \nhttp://ititli.com/xu \nhttp://ititli.com/xv\r\n\r\n----------------------------------------------------------------------------------------------------\r\n\r\n\r\nEncoder Notes: Looking For Early Access To Anything You Can Provide DVDScr, R5, DVDR, BluRay, Direct\r\nAudio, Music Releases and Seedboxes. If You Got anything to offer please contact us.\r\n\r\nSupport us by donating BC - 1FgwdzPsd1y25Gea8wP1qni35uGCtmkRCD\r\n\r\nFor our latest release, find us and join us!","torrent":{"xt":"urn:btih:bc8b81382311e900fd68e52e4a523e85ea21b735","amp;dn":"The.Walk.2015.WEBRip.480p.x264.AAC-VYTO+%5BP2PDL%5D","amp;tr":["udp%3A%2F%2Ftracker.leechers-paradise.org%3A6969","udp%3A%2F%2Fzer0day.ch%3A1337","udp%3A%2F%2Fopen.demonii.com%3A1337","udp%3A%2F%2Ftracker.coppersurfer.tk%3A6969","udp%3A%2F%2Fexodus.desync.com%3A6969"],"infoHash":"bc8b81382311e900fd68e52e4a523e85ea21b735","infoHashBuffer":{"type":"Buffer","data":[188,139,129,56,35,17,233,0,253,104,229,46,74,82,62,133,234,33,183,53]},"announce":[],"urlList":[]}}